<svg viewBox="0 0 1100 700" xmlns="http://www.w3.org/2000/svg">
  <!-- Background -->
  <rect x="0" y="0" width="1100" height="700" fill="#555"/>
  
  <!-- Main outline -->
  <rect x="10" y="10" width="1080" height="680" fill="none" stroke="#fff" stroke-width="2"/>
  
  <!-- Hatched areas (corners) -->
  <pattern id="hatch" patternUnits="userSpaceOnUse" width="10" height="10" patternTransform="rotate(45)">
    <line x1="0" y1="0" x2="0" y2="10" stroke="#fff" stroke-width="1"/>
  </pattern>
  
  <!-- Top left corner (stairs) -->
  <rect x="10" y="10" width="120" height="120" fill="url(#hatch)" stroke="#fff" stroke-width="1"/>
  <rect x="30" y="30" width="60" height="60" fill="none" stroke="#fff" stroke-width="1"/>
  <line x1="30" y1="40" x2="90" y2="40" stroke="#fff" stroke-width="1"/>
  <line x1="30" y1="50" x2="90" y2="50" stroke="#fff" stroke-width="1"/>
  <line x1="30" y1="60" x2="90" y2="60" stroke="#fff" stroke-width="1"/>
  <line x1="30" y1="70" x2="90" y2="70" stroke="#fff" stroke-width="1"/>
  <line x1="30" y1="80" x2="90" y2="80" stroke="#fff" stroke-width="1"/>
  
  <!-- Top right corner -->
  <rect x="970" y="10" width="120" height="120" fill="url(#hatch)" stroke="#fff" stroke-width="1"/>
  
  <!-- Bottom left corner -->
  <rect x="10" y="570" width="120" height="120" fill="url(#hatch)" stroke="#fff" stroke-width="1"/>
  
  <!-- Bottom right corner (stairs/elevator) -->
  <rect x="970" y="570" width="120" height="120" fill="url(#hatch)" stroke="#fff" stroke-width="1"/>
  <rect x="1030" y="610" width="40" height="50" fill="none" stroke="#fff" stroke-width="1"/>
  <rect x="980" y="630" width="40" height="30" fill="none" stroke="#fff" stroke-width="1"/>
  
  <!-- Parking spaces -->
  <!-- Top row -->
  <g stroke="#fff" stroke-width="1">
    <line x1="130" y1="80" x2="970" y2="80" />
    <line x1="150" y1="10" x2="150" y2="80" />
    <line x1="180" y1="10" x2="180" y2="80" />
    <line x1="210" y1="10" x2="210" y2="80" />
    <line x1="240" y1="10" x2="240" y2="80" />
    <line x1="270" y1="10" x2="270" y2="80" />
    <line x1="300" y1="10" x2="300" y2="80" />
    <line x1="330" y1="10" x2="330" y2="80" />
    <line x1="360" y1="10" x2="360" y2="80" />
    <line x1="390" y1="10" x2="390" y2="80" />
    <line x1="420" y1="10" x2="420" y2="80" />
    <line x1="450" y1="10" x2="450" y2="80" />
    <line x1="480" y1="10" x2="480" y2="80" />
    <line x1="510" y1="10" x2="510" y2="80" />
    <line x1="540" y1="10" x2="540" y2="80" />
    <line x1="570" y1="10" x2="570" y2="80" />
    <line x1="600" y1="10" x2="600" y2="80" />
    <line x1="630" y1="10" x2="630" y2="80" />
    <line x1="660" y1="10" x2="660" y2="80" />
    <line x1="690" y1="10" x2="690" y2="80" />
    <line x1="720" y1="10" x2="720" y2="80" />
    <line x1="750" y1="10" x2="750" y2="80" />
    <line x1="780" y1="10" x2="780" y2="80" />
    <line x1="810" y1="10" x2="810" y2="80" />
    <line x1="840" y1="10" x2="840" y2="80" />
    <line x1="870" y1="10" x2="870" y2="80" />
    <line x1="900" y1="10" x2="900" y2="80" />
    <line x1="930" y1="10" x2="930" y2="80" />
  </g>
  
  <!-- Middle section (center island) -->
  <rect x="240" y="235" width="30" height="230" fill="url(#hatch)" stroke="#fff" stroke-width="1"/>
  <rect x="830" y="235" width="30" height="230" fill="url(#hatch)" stroke="#fff" stroke-width="1"/>
  <line x1="240" y1="350" x2="830" y2="350" stroke="#fff" stroke-width="1"/>
  
  <!-- Middle parking spaces (above center line) -->
  <g stroke="#fff" stroke-width="1">
    <line x1="270" y1="235" x2="270" y2="350" />
    <line x1="300" y1="235" x2="300" y2="350" />
    <line x1="330" y1="235" x2="330" y2="350" />
    <line x1="360" y1="235" x2="360" y2="350" />
    <line x1="390" y1="235" x2="390" y2="350" />
    <line x1="420" y1="235" x2="420" y2="350" />
    <line x1="450" y1="235" x2="450" y2="350" />
    <line x1="480" y1="235" x2="480" y2="350" />
    <line x1="510" y1="235" x2="510" y2="350" />
    <line x1="540" y1="235" x2="540" y2="350" />
    <line x1="570" y1="235" x2="570" y2="350" />
    <line x1="600" y1="235" x2="600" y2="350" />
    <line x1="630" y1="235" x2="630" y2="350" />
    <line x1="660" y1="235" x2="660" y2="350" />
    <line x1="690" y1="235" x2="690" y2="350" />
    <line x1="720" y1="235" x2="720" y2="350" />
    <line x1="750" y1="235" x2="750" y2="350" />
    <line x1="780" y1="235" x2="780" y2="350" />
    <line x1="810" y1="235" x2="810" y2="350" />
  </g>
  
  <!-- Middle parking spaces (below center line) -->
  <g stroke="#fff" stroke-width="1">
    <line x1="270" y1="350" x2="270" y2="465" />
    <line x1="300" y1="350" x2="300" y2="465" />
    <line x1="330" y1="350" x2="330" y2="465" />
    <line x1="360" y1="350" x2="360" y2="465" />
    <line x1="390" y1="350" x2="390" y2="465" />
    <line x1="420" y1="350" x2="420" y2="465" />
    <line x1="450" y1="350" x2="450" y2="465" />
    <line x1="480" y1="350" x2="480" y2="465" />
    <line x1="510" y1="350" x2="510" y2="465" />
    <line x1="540" y1="350" x2="540" y2="465" />
    <line x1="570" y1="350" x2="570" y2="465" />
    <line x1="600" y1="350" x2="600" y2="465" />
    <line x1="630" y1="350" x2="630" y2="465" />
    <line x1="660" y1="350" x2="660" y2="465" />
    <line x1="690" y1="350" x2="690" y2="465" />
    <line x1="720" y1="350" x2="720" y2="465" />
    <line x1="750" y1="350" x2="750" y2="465" />
    <line x1="780" y1="350" x2="780" y2="465" />
    <line x1="810" y1="350" x2="810" y2="465" />
  </g>
  
  <!-- Bottom row -->
  <g stroke="#fff" stroke-width="1">
    <line x1="130" y1="620" x2="970" y2="620" />
    <line x1="150" y1="620" x2="150" y2="690" />
    <line x1="180" y1="620" x2="180" y2="690" />
    <line x1="210" y1="620" x2="210" y2="690" />
    <line x1="240" y1="620" x2="240" y2="690" />
    <line x1="270" y1="620" x2="270" y2="690" />
    <line x1="300" y1="620" x2="300" y2="690" />
    <line x1="330" y1="620" x2="330" y2="690" />
    <line x1="360" y1="620" x2="360" y2="690" />
    <line x1="390" y1="620" x2="390" y2="690" />
    <line x1="420" y1="620" x2="420" y2="690" />
    <line x1="450" y1="620" x2="450" y2="690" />
    <line x1="480" y1="620" x2="480" y2="690" />
    <line x1="510" y1="620" x2="510" y2="690" />
    <line x1="540" y1="620" x2="540" y2="690" />
    <line x1="570" y1="620" x2="570" y2="690" />
    <line x1="600" y1="620" x2="600" y2="690" />
    <line x1="630" y1="620" x2="630" y2="690" />
    <line x1="660" y1="620" x2="660" y2="690" />
    <line x1="690" y1="620" x2="690" y2="690" />
    <line x1="720" y1="620" x2="720" y2="690" />
    <line x1="750" y1="620" x2="750" y2="690" />
    <line x1="780" y1="620" x2="780" y2="690" />
    <line x1="810" y1="620" x2="810" y2="690" />
    <line x1="840" y1="620" x2="840" y2="690" />
    <line x1="870" y1="620" x2="870" y2="690" />
    <line x1="900" y1="620" x2="900" y2="690" />
    <line x1="930" y1="620" x2="930" y2="690" />
  </g>
  
  <!-- Side parking rows -->
  <g stroke="#fff" stroke-width="1">
    <line x1="80" y1="150" x2="80" y2="550" />
    <line x1="10" y1="170" x2="80" y2="170" />
    <line x1="10" y1="200" x2="80" y2="200" />
    <line x1="10" y1="230" x2="80" y2="230" />
    <line x1="10" y1="260" x2="80" y2="260" />
    <line x1="10" y1="290" x2="80" y2="290" />
    <line x1="10" y1="320" x2="80" y2="320" />
    <line x1="10" y1="350" x2="80" y2="350" />
    <line x1="10" y1="380" x2="80" y2="380" />
    <line x1="10" y1="410" x2="80" y2="410" />
    <line x1="10" y1="440" x2="80" y2="440" />
    <line x1="10" y1="470" x2="80" y2="470" />
    <line x1="10" y1="500" x2="80" y2="500" />
    <line x1="10" y1="530" x2="80" y2="530" />
  </g>
  
  <g stroke="#fff" stroke-width="1">
    <line x1="1020" y1="150" x2="1020" y2="550" />
    <line x1="1020" y1="170" x2="1090" y2="170" />
    <line x1="1020" y1="200" x2="1090" y2="200" />
    <line x1="1020" y1="230" x2="1090" y2="230" />
    <line x1="1020" y1="260" x2="1090" y2="260" />
    <line x1="1020" y1="290" x2="1090" y2="290" />
    <line x1="1020" y1="320" x2="1090" y2="320" />
    <line x1="1020" y1="350" x2="1090" y2="350" />
    <line x1="1020" y1="380" x2="1090" y2="380" />
    <line x1="1020" y1="410" x2="1090" y2="410" />
    <line x1="1020" y1="440" x2="1090" y2="440" />
    <line x1="1020" y1="470" x2="1090" y2="470" />
    <line x1="1020" y1="500" x2="1090" y2="500" />
    <line x1="1020" y1="530" x2="1090" y2="530" />
  </g>
  
  <!-- Traffic flow arrows -->
  <g stroke="#fff" fill="none">
    <path d="M550,135 L530,135 L540,125 Z" stroke-width="1" fill="#fff"/>
    <path d="M550,195 L570,195 L560,205 Z" stroke-width="1" fill="#fff"/>
    <path d="M550,495 L530,495 L540,485 Z" stroke-width="1" fill="#fff"/>
    <path d="M550,555 L570,555 L560,565 Z" stroke-width="1" fill="#fff"/>
    <path d="M135,350 L125,330 L145,330 Z" stroke-width="1" fill="#fff"/>
    <path d="M135,390 L125,410 L145,410 Z" stroke-width="1" fill="#fff"/>
    <path d="M965,350 L955,330 L975,330 Z" stroke-width="1" fill="#fff"/>
    <path d="M965,390 L955,410 L975,410 Z" stroke-width="1" fill="#fff"/>
  </g>
</svg>
