<svg viewBox="0 0 1100 700" xmlns="http://www.w3.org/2000/svg">
  <!-- Outer border -->
  <rect x="10" y="10" width="1080" height="680" fill="none" stroke="black" stroke-width="2" />
  
  <!-- Top row parking spots -->
  <g id="top-row">
    <line x1="190" y1="10" x2="190" y2="140" stroke="black" stroke-width="1.5" />
    <line x1="240" y1="10" x2="240" y2="140" stroke="black" stroke-width="1.5" />
    <line x1="290" y1="10" x2="290" y2="140" stroke="black" stroke-width="1.5" />
    <line x1="340" y1="10" x2="340" y2="140" stroke="black" stroke-width="1.5" />
    <line x1="390" y1="10" x2="390" y2="140" stroke="black" stroke-width="1.5" />
    <line x1="440" y1="10" x2="440" y2="140" stroke="black" stroke-width="1.5" />
    <line x1="490" y1="10" x2="490" y2="140" stroke="black" stroke-width="1.5" />
    <line x1="540" y1="10" x2="540" y2="140" stroke="black" stroke-width="1.5" />
    <line x1="590" y1="10" x2="590" y2="140" stroke="black" stroke-width="1.5" />
    <line x1="640" y1="10" x2="640" y2="140" stroke="black" stroke-width="1.5" />
    <line x1="690" y1="10" x2="690" y2="140" stroke="black" stroke-width="1.5" />
    <line x1="740" y1="10" x2="740" y2="140" stroke="black" stroke-width="1.5" />
    <line x1="790" y1="10" x2="790" y2="140" stroke="black" stroke-width="1.5" />
    <line x1="840" y1="10" x2="840" y2="140" stroke="black" stroke-width="1.5" />
    <line x1="890" y1="10" x2="890" y2="140" stroke="black" stroke-width="1.5" />
    <line x1="940" y1="10" x2="940" y2="140" stroke="black" stroke-width="1.5" />
    <line x1="990" y1="10" x2="990" y2="140" stroke="black" stroke-width="1.5" />
    
    <!-- Top row number -->
    <circle cx="930" cy="80" r="20" fill="none" stroke="black" stroke-width="1" />
    <text x="930" y="85" font-size="18" text-anchor="middle">15</text>
  </g>
  
  <!-- Middle row parking spots -->
  <g id="middle-row">
    <line x1="190" y1="230" x2="190" y2="360" stroke="black" stroke-width="1.5" />
    <line x1="240" y1="230" x2="240" y2="360" stroke="black" stroke-width="1.5" />
    <line x1="290" y1="230" x2="290" y2="360" stroke="black" stroke-width="1.5" />
    <line x1="340" y1="230" x2="340" y2="360" stroke="black" stroke-width="1.5" />
    <line x1="390" y1="230" x2="390" y2="360" stroke="black" stroke-width="1.5" />
    <line x1="440" y1="230" x2="440" y2="360" stroke="black" stroke-width="1.5" />
    <line x1="490" y1="230" x2="490" y2="360" stroke="black" stroke-width="1.5" />
    <line x1="540" y1="230" x2="540" y2="360" stroke="black" stroke-width="1.5" />
    <line x1="590" y1="230" x2="590" y2="360" stroke="black" stroke-width="1.5" />
    <line x1="640" y1="230" x2="640" y2="360" stroke="black" stroke-width="1.5" />
    <line x1="690" y1="230" x2="690" y2="360" stroke="black" stroke-width="1.5" />
    <line x1="740" y1="230" x2="740" y2="360" stroke="black" stroke-width="1.5" />
    <line x1="790" y1="230" x2="790" y2="360" stroke="black" stroke-width="1.5" />
    <line x1="840" y1="230" x2="840" y2="360" stroke="black" stroke-width="1.5" />
    <line x1="890" y1="230" x2="890" y2="360" stroke="black" stroke-width="1.5" />
    <line x1="940" y1="230" x2="940" y2="360" stroke="black" stroke-width="1.5" />
    <line x1="990" y1="230" x2="990" y2="360" stroke="black" stroke-width="1.5" />
    
    <!-- Middle row horizontal divider -->
    <line x1="140" y1="295" x2="960" y2="295" stroke="black" stroke-width="1.5" />
    
    <!-- Middle row numbers -->
    <circle cx="765" cy="270" r="20" fill="none" stroke="black" stroke-width="1" />
    <text x="765" y="275" font-size="18" text-anchor="middle">11</text>
    <circle cx="765" cy="330" r="20" fill="none" stroke="black" stroke-width="1" />
    <text x="765" y="335" font-size="18" text-anchor="middle">11</text>
  </g>
  
  <!-- Bottom row parking spots -->
  <g id="bottom-row">
    <line x1="140" y1="450" x2="140" y2="580" stroke="black" stroke-width="1.5" />
    <line x1="190" y1="450" x2="190" y2="580" stroke="black" stroke-width="1.5" />
    <line x1="240" y1="450" x2="240" y2="580" stroke="black" stroke-width="1.5" />
    <line x1="290" y1="450" x2="290" y2="580" stroke="black" stroke-width="1.5" />
    <line x1="340" y1="450" x2="340" y2="580" stroke="black" stroke-width="1.5" />
    <line x1="390" y1="450" x2="390" y2="580" stroke="black" stroke-width="1.5" />
    <line x1="440" y1="450" x2="440" y2="580" stroke="black" stroke-width="1.5" />
    <line x1="490" y1="450" x2="490" y2="580" stroke="black" stroke-width="1.5" />
    <line x1="540" y1="450" x2="540" y2="580" stroke="black" stroke-width="1.5" />
    <line x1="590" y1="450" x2="590" y2="580" stroke="black" stroke-width="1.5" />
    <line x1="640" y1="450" x2="640" y2="580" stroke="black" stroke-width="1.5" />
    <line x1="690" y1="450" x2="690" y2="580" stroke="black" stroke-width="1.5" />
    <line x1="740" y1="450" x2="740" y2="580" stroke="black" stroke-width="1.5" />
    <line x1="790" y1="450" x2="790" y2="580" stroke="black" stroke-width="1.5" />
    <line x1="840" y1="450" x2="840" y2="580" stroke="black" stroke-width="1.5" />
    <line x1="890" y1="450" x2="890" y2="580" stroke="black" stroke-width="1.5" />
    <line x1="940" y1="450" x2="940" y2="580" stroke="black" stroke-width="1.5" />
    
    <!-- Bottom row number -->
    <circle cx="820" cy="515" r="20" fill="none" stroke="black" stroke-width="1" />
    <text x="820" y="520" font-size="18" text-anchor="middle">14</text>
  </g>
  
  <!-- Stairwells and elevators -->
  <g id="stairwells">
    <!-- Top left stairwell -->
    <rect x="10" y="10" width="140" height="140" fill="none" stroke="black" stroke-width="2" />
    <path d="M30,30 L120,30 L120,120 L30,120 Z" fill="none" stroke="black" stroke-width="1" />
    <path d="M30,30 L120,120" fill="none" stroke="black" stroke-width="1" />
    <path d="M30,70 L80,70" fill="none" stroke="black" stroke-width="1" />
    <path d="M80,70 L80,120" fill="none" stroke="black" stroke-width="1" />
    
    <!-- Bottom right stairwell -->
    <rect x="990" y="450" width="100" height="130" fill="none" stroke="black" stroke-width="2" />
    <path d="M1010,470 L1070,470 L1070,530 L1010,530 Z" fill="none" stroke="black" stroke-width="1" />
  </g>
  
  <!-- Ramps -->
  <g id="ramps">
    <!-- Top ramp label -->
    <line x1="240" y1="185" x2="840" y2="185" stroke="black" stroke-width="1" stroke-dasharray="5,5" />
    <text x="540" y="170" font-size="12" text-anchor="middle">PARKING RAMP @ 6.08%</text>
    <path d="M500,185 L480,180 L480,190 Z" fill="black" />
    <path d="M580,185 L600,180 L600,190 Z" fill="black" />
    
    <!-- Bottom ramp label -->
    <line x1="240" y1="405" x2="840" y2="405" stroke="black" stroke-width="1" stroke-dasharray="5,5" />
    <text x="540" y="390" font-size="12" text-anchor="middle">PARKING RAMP @ 6.08%</text>
    <path d="M500,405 L480,400 L480,410 Z" fill="black" />
    <path d="M580,405 L600,400 L600,410 Z" fill="black" />
  </g>
  
  <!-- Directional arrows -->
  <g id="direction-arrows">
    <path d="M40,270 L40,250 L30,260 L40,270 Z" fill="black" />
    <path d="M40,330 L40,350 L50,340 L40,330 Z" fill="black" />
    
    <path d="M1060,270 L1060,250 L1050,260 L1060,270 Z" fill="black" />
    <path d="M1060,330 L1060,350 L1070,340 L1060,330 Z" fill="black" />
  </g>
  
  <!-- Hatched areas -->
  <g id="hatched-areas">
    <pattern id="hatch-pattern" patternUnits="userSpaceOnUse" width="10" height="10" patternTransform="rotate(45)">
      <line x1="0" y1="0" x2="0" y2="10" stroke="black" stroke-width="1"/>
    </pattern>
    
    <!-- Top left hatched area -->
    <rect x="10" y="150" width="140" height="70" fill="url(#hatch-pattern)" />
    
    <!-- Middle left hatched area -->
    <rect x="10" y="230" width="140" height="130" fill="url(#hatch-pattern)" />
    
    <!-- Middle right hatched area -->
    <rect x="950" y="230" width="140" height="130" fill="url(#hatch-pattern)" />
    
    <!-- Bottom right hatched area -->
    <rect x="990" y="580" width="100" height="110" fill="url(#hatch-pattern)" />
  </g>
</svg>